<svg xmlns="http://www.w3.org/2000/svg" width="860" height="208" viewBox="0 0 860 208" font-family="ui-monospace,SFMono-Regular,Menlo,Consolas,monospace"><style>@keyframes pop{0%{opacity:0;transform:translateY(-5px) scale(.35)}100%{opacity:1;transform:none}}.c{opacity:0;transform-box:fill-box;transform-origin:center;animation:pop .45s ease-out both}@media(prefers-reduced-motion:reduce){.c{opacity:1!important;animation:none!important}}</style><defs><linearGradient id="bg" x1="0" y1="0" x2="0" y2="1"><stop stop-color="#0d1420"/><stop offset="1" stop-color="#0a0e14"/></linearGradient><linearGradient id="accent" x1="0" y1="0" x2="1" y2="0"><stop stop-color="#22d3ee"/><stop offset="1" stop-color="#a78bfa"/></linearGradient></defs><rect width="860" height="208" rx="12" fill="url(#bg)"/><rect x=".5" y=".5" width="859" height="207" rx="12" fill="none" stroke="#30363d"/><line x1="0" y1="30" x2="860" y2="30" stroke="#30363d"/><circle cx="20" cy="15" r="5" fill="#ff5f56"/><circle cx="36" cy="15" r="5" fill="#ffbd2e"/><circle cx="52" cy="15" r="5" fill="#27c93f"/><text x="430.0" y="19" text-anchor="middle" fill="#7d8590" font-size="11">vivaan@github: ~/contributions --graph</text><text x="8" y="74" fill="#7d8590" font-size="9">Mon</text><text x="8" y="104" fill="#7d8590" font-size="9">Wed</text><text x="8" y="134" fill="#7d8590" font-size="9">Fri</text><rect class="c" x="38" y="49" width="12" height="12" rx="2.4" fill="#161b22" style="animation-delay:0.000s"/><rect class="c" x="38" y="64" width="12" height="12" rx="2.4" fill="#161b22" style="animation-delay:0.042s"/><rect class="c" x="38" y="79" width="12" height="12" rx="2.4" fill="#161b22" style="animation-delay:0.084s"/><rect class="c" x="38" y="94" width="12" height="12" rx="2.4" fill="#161b22" style="animation-delay:0.126s"/><rect class="c" x="38" y="109" width="12" height="12" rx="2.4" fill="#161b22" style="animation-delay:0.168s"/><rect class="c" x="38" y="124" width="12" height="12" rx="2.4" fill="#161b22" style="animation-delay:0.210s"/><rect class="c" x="38" y="139" width="12" height="12" rx="2.4" fill="#161b22" style="animation-delay:0.252s"/><rect class="c" x="53" y="49" width="12" height="12" rx="2.4" fill="#161b22" style="animation-delay:0.019s"/><rect class="c" x="53" y="64" width="12" height="12" rx="2.4" fill="#161b22" style="animation-delay:0.061s"/><rect class="c" x="53" y="79" width="12" height="12" rx="2.4" fill="#161b22" style="animation-delay:0.103s"/><rect class="c" x="53" y="94" width="12" height="12" rx="2.4" fill="#161b22" style="animation-delay:0.145s"/><rect class="c" x="53" y="109" width="12" height="12" rx="2.4" fill="#161b22" style="animation-delay:0.187s"/><rect class="c" x="53" y="124" width="12" height="12" rx="2.4" fill="#161b22" style="animation-delay:0.229s"/><rect class="c" x="53" y="139" width="12" height="12" rx="2.4" fill="#161b22" style="animation-delay:0.271s"/><rect class="c" x="68" y="49" width="12" height="12" rx="2.4" fill="#161b22" style="animation-delay:0.038s"/><rect class="c" x="68" y="64" width="12" height="12" rx="2.4" fill="#161b22" style="animation-delay:0.080s"/><rect class="c" x="68" y="79" width="12" height="12" rx="2.4" fill="#161b22" style="animation-delay:0.122s"/><rect class="c" x="68" y="94" width="12" height="12" rx="2.4" fill="#161b22" style="animation-delay:0.164s"/><rect class="c" x="68" y="109" width="12" height="12" rx="2.4" fill="#161b22" style="animation-delay:0.206s"/><rect class="c" x="68" y="124" width="12" height="12" rx="2.4" fill="#161b22" style="animation-delay:0.248s"/><rect class="c" x="68" y="139" width="12" height="12" rx="2.4" fill="#161b22" style="animation-delay:0.290s"/><rect class="c" x="83" y="49" width="12" height="12" rx="2.4" fill="#161b22" style="animation-delay:0.057s"/><rect class="c" x="83" y="64" width="12" height="12" rx="2.4" fill="#161b22" style="animation-delay:0.099s"/><rect class="c" x="83" y="79" width="12" height="12" rx="2.4" fill="#161b22" style="animation-delay:0.141s"/><rect class="c" x="83" y="94" width="12" height="12" rx="2.4" fill="#161b22" style="animation-delay:0.183s"/><rect class="c" x="83" y="109" width="12" height="12" rx="2.4" fill="#161b22" style="animation-delay:0.225s"/><rect class="c" x="83" y="124" width="12" height="12" rx="2.4" fill="#161b22" style="animation-delay:0.267s"/><rect class="c" x="83" y="139" width="12" height="12" rx="2.4" fill="#161b22" style="animation-delay:0.309s"/><rect class="c" x="98" y="49" width="12" height="12" rx="2.4" fill="#161b22" style="animation-delay:0.076s"/><rect class="c" x="98" y="64" width="12" height="12" rx="2.4" fill="#161b22" style="animation-delay:0.118s"/><rect class="c" x="98" y="79" width="12" height="12" rx="2.4" fill="#161b22" style="animation-delay:0.160s"/><rect class="c" x="98" y="94" width="12" height="12" rx="2.4" fill="#161b22" style="animation-delay:0.202s"/><rect class="c" x="98" y="109" width="12" height="12" rx="2.4" fill="#161b22" style="animation-delay:0.244s"/><rect class="c" x="98" y="124" width="12" height="12" rx="2.4" fill="#161b22" style="animation-delay:0.286s"/><rect class="c" x="98" y="139" width="12" height="12" rx="2.4" fill="#161b22" style="animation-delay:0.328s"/><rect class="c" x="113" y="49" width="12" height="12" rx="2.4" fill="#161b22" style="animation-delay:0.095s"/><rect class="c" x="113" y="64" width="12" height="12" rx="2.4" fill="#161b22" style="animation-delay:0.137s"/><rect class="c" x="113" y="79" width="12" height="12" rx="2.4" fill="#161b22" style="animation-delay:0.179s"/><rect class="c" x="113" y="94" width="12" height="12" rx="2.4" fill="#161b22" style="animation-delay:0.221s"/><rect class="c" x="113" y="109" width="12" height="12" rx="2.4" fill="#161b22" style="animation-delay:0.263s"/><rect class="c" x="113" y="124" width="12" height="12" rx="2.4" fill="#161b22" style="animation-delay:0.305s"/><rect class="c" x="113" y="139" width="12" height="12" rx="2.4" fill="#161b22" style="animation-delay:0.347s"/><rect class="c" x="128" y="49" width="12" height="12" rx="2.4" fill="#161b22" style="animation-delay:0.114s"/><rect class="c" x="128" y="64" width="12" height="12" rx="2.4" fill="#161b22" style="animation-delay:0.156s"/><rect class="c" x="128" y="79" width="12" height="12" rx="2.4" fill="#161b22" style="animation-delay:0.198s"/><rect class="c" x="128" y="94" width="12" height="12" rx="2.4" fill="#161b22" style="animation-delay:0.240s"/><rect class="c" x="128" y="109" width="12" height="12" rx="2.4" fill="#161b22" style="animation-delay:0.282s"/><rect class="c" x="128" y="124" width="12" height="12" rx="2.4" fill="#161b22" style="animation-delay:0.324s"/><rect class="c" x="128" y="139" width="12" height="12" rx="2.4" fill="#161b22" style="animation-delay:0.366s"/><rect class="c" x="143" y="49" width="12" height="12" rx="2.4" fill="#161b22" style="animation-delay:0.133s"/><rect class="c" x="143" y="64" width="12" height="12" rx="2.4" fill="#161b22" style="animation-delay:0.175s"/><rect class="c" x="143" y="79" width="12" height="12" rx="2.4" fill="#161b22" style="animation-delay:0.217s"/><rect class="c" x="143" y="94" width="12" height="12" rx="2.4" fill="#161b22" style="animation-delay:0.259s"/><rect class="c" x="143" y="109" width="12" height="12" rx="2.4" fill="#161b22" style="animation-delay:0.301s"/><rect class="c" x="143" y="124" width="12" height="12" rx="2.4" fill="#161b22" style="animation-delay:0.343s"/><rect class="c" x="143" y="139" width="12" height="12" rx="2.4" fill="#161b22" style="animation-delay:0.385s"/><rect class="c" x="158" y="49" width="12" height="12" rx="2.4" fill="#161b22" style="animation-delay:0.152s"/><rect class="c" x="158" y="64" width="12" height="12" rx="2.4" fill="#161b22" style="animation-delay:0.194s"/><rect class="c" x="158" y="79" width="12" height="12" rx="2.4" fill="#161b22" style="animation-delay:0.236s"/><rect class="c" x="158" y="94" width="12" height="12" rx="2.4" fill="#161b22" style="animation-delay:0.278s"/><rect class="c" x="158" y="109" width="12" height="12" rx="2.4" fill="#161b22" style="animation-delay:0.320s"/><rect class="c" x="158" y="124" width="12" height="12" rx="2.4" fill="#161b22" style="animation-delay:0.362s"/><rect class="c" x="158" y="139" width="12" height="12" rx="2.4" fill="#161b22" style="animation-delay:0.404s"/><rect class="c" x="173" y="49" width="12" height="12" rx="2.4" fill="#161b22" style="animation-delay:0.171s"/><rect class="c" x="173" y="64" width="12" height="12" rx="2.4" fill="#161b22" style="animation-delay:0.213s"/><rect class="c" x="173" y="79" width="12" height="12" rx="2.4" fill="#161b22" style="animation-delay:0.255s"/><rect class="c" x="173" y="94" width="12" height="12" rx="2.4" fill="#161b22" style="animation-delay:0.297s"/><rect class="c" x="173" y="109" width="12" height="12" rx="2.4" fill="#161b22" style="animation-delay:0.339s"/><rect class="c" x="173" y="124" width="12" height="12" rx="2.4" fill="#161b22" style="animation-delay:0.381s"/><rect class="c" x="173" y="139" width="12" height="12" rx="2.4" fill="#161b22" style="animation-delay:0.423s"/><rect class="c" x="188" y="49" width="12" height="12" rx="2.4" fill="#161b22" style="animation-delay:0.190s"/><rect class="c" x="188" y="64" width="12" height="12" rx="2.4" fill="#161b22" style="animation-delay:0.232s"/><rect class="c" x="188" y="79" width="12" height="12" rx="2.4" fill="#161b22" style="animation-delay:0.274s"/><rect class="c" x="188" y="94" width="12" height="12" rx="2.4" fill="#161b22" style="animation-delay:0.316s"/><rect class="c" x="188" y="109" width="12" height="12" rx="2.4" fill="#161b22" style="animation-delay:0.358s"/><rect class="c" x="188" y="124" width="12" height="12" rx="2.4" fill="#161b22" style="animation-delay:0.400s"/><rect class="c" x="188" y="139" width="12" height="12" rx="2.4" fill="#161b22" style="animation-delay:0.442s"/><rect class="c" x="203" y="49" width="12" height="12" rx="2.4" fill="#161b22" style="animation-delay:0.209s"/><rect class="c" x="203" y="64" width="12" height="12" rx="2.4" fill="#161b22" style="animation-delay:0.251s"/><rect class="c" x="203" y="79" width="12" height="12" rx="2.4" fill="#161b22" style="animation-delay:0.293s"/><rect class="c" x="203" y="94" width="12" height="12" rx="2.4" fill="#161b22" style="animation-delay:0.335s"/><rect class="c" x="203" y="109" width="12" height="12" rx="2.4" fill="#161b22" style="animation-delay:0.377s"/><rect class="c" x="203" y="124" width="12" height="12" rx="2.4" fill="#161b22" style="animation-delay:0.419s"/><rect class="c" x="203" y="139" width="12" height="12" rx="2.4" fill="#161b22" style="animation-delay:0.461s"/><rect class="c" x="218" y="49" width="12" height="12" rx="2.4" fill="#161b22" style="animation-delay:0.228s"/><rect class="c" x="218" y="64" width="12" height="12" rx="2.4" fill="#161b22" style="animation-delay:0.270s"/><rect class="c" x="218" y="79" width="12" height="12" rx="2.4" fill="#161b22" style="animation-delay:0.312s"/><rect class="c" x="218" y="94" width="12" height="12" rx="2.4" fill="#161b22" style="animation-delay:0.354s"/><rect class="c" x="218" y="109" width="12" height="12" rx="2.4" fill="#161b22" style="animation-delay:0.396s"/><rect class="c" x="218" y="124" width="12" height="12" rx="2.4" fill="#161b22" style="animation-delay:0.438s"/><rect class="c" x="218" y="139" width="12" height="12" rx="2.4" fill="#161b22" style="animation-delay:0.480s"/><rect class="c" x="233" y="49" width="12" height="12" rx="2.4" fill="#161b22" style="animation-delay:0.247s"/><rect class="c" x="233" y="64" width="12" height="12" rx="2.4" fill="#161b22" style="animation-delay:0.289s"/><rect class="c" x="233" y="79" width="12" height="12" rx="2.4" fill="#161b22" style="animation-delay:0.331s"/><rect class="c" x="233" y="94" width="12" height="12" rx="2.4" fill="#161b22" style="animation-delay:0.373s"/><rect class="c" x="233" y="109" width="12" height="12" rx="2.4" fill="#161b22" style="animation-delay:0.415s"/><rect class="c" x="233" y="124" width="12" height="12" rx="2.4" fill="#161b22" style="animation-delay:0.457s"/><rect class="c" x="233" y="139" width="12" height="12" rx="2.4" fill="#161b22" style="animation-delay:0.499s"/><rect class="c" x="248" y="49" width="12" height="12" rx="2.4" fill="#161b22" style="animation-delay:0.266s"/><rect class="c" x="248" y="64" width="12" height="12" rx="2.4" fill="#161b22" style="animation-delay:0.308s"/><rect class="c" x="248" y="79" width="12" height="12" rx="2.4" fill="#161b22" style="animation-delay:0.350s"/><rect class="c" x="248" y="94" width="12" height="12" rx="2.4" fill="#161b22" style="animation-delay:0.392s"/><rect class="c" x="248" y="109" width="12" height="12" rx="2.4" fill="#161b22" style="animation-delay:0.434s"/><rect class="c" x="248" y="124" width="12" height="12" rx="2.4" fill="#161b22" style="animation-delay:0.476s"/><rect class="c" x="248" y="139" width="12" height="12" rx="2.4" fill="#161b22" style="animation-delay:0.518s"/><rect class="c" x="263" y="49" width="12" height="12" rx="2.4" fill="#161b22" style="animation-delay:0.285s"/><rect class="c" x="263" y="64" width="12" height="12" rx="2.4" fill="#161b22" style="animation-delay:0.327s"/><rect class="c" x="263" y="79" width="12" height="12" rx="2.4" fill="#161b22" style="animation-delay:0.369s"/><rect class="c" x="263" y="94" width="12" height="12" rx="2.4" fill="#161b22" style="animation-delay:0.411s"/><rect class="c" x="263" y="109" width="12" height="12" rx="2.4" fill="#161b22" style="animation-delay:0.453s"/><rect class="c" x="263" y="124" width="12" height="12" rx="2.4" fill="#161b22" style="animation-delay:0.495s"/><rect class="c" x="263" y="139" width="12" height="12" rx="2.4" fill="#161b22" style="animation-delay:0.537s"/><rect class="c" x="278" y="49" width="12" height="12" rx="2.4" fill="#161b22" style="animation-delay:0.304s"/><rect class="c" x="278" y="64" width="12" height="12" rx="2.4" fill="#161b22" style="animation-delay:0.346s"/><rect class="c" x="278" y="79" width="12" height="12" rx="2.4" fill="#161b22" style="animation-delay:0.388s"/><rect class="c" x="278" y="94" width="12" height="12" rx="2.4" fill="#161b22" style="animation-delay:0.430s"/><rect class="c" x="278" y="109" width="12" height="12" rx="2.4" fill="#161b22" style="animation-delay:0.472s"/><rect class="c" x="278" y="124" width="12" height="12" rx="2.4" fill="#161b22" style="animation-delay:0.514s"/><rect class="c" x="278" y="139" width="12" height="12" rx="2.4" fill="#161b22" style="animation-delay:0.556s"/><rect class="c" x="293" y="49" width="12" height="12" rx="2.4" fill="#161b22" style="animation-delay:0.323s"/><rect class="c" x="293" y="64" width="12" height="12" rx="2.4" fill="#161b22" style="animation-delay:0.365s"/><rect class="c" x="293" y="79" width="12" height="12" rx="2.4" fill="#161b22" style="animation-delay:0.407s"/><rect class="c" x="293" y="94" width="12" height="12" rx="2.4" fill="#161b22" style="animation-delay:0.449s"/><rect class="c" x="293" y="109" width="12" height="12" rx="2.4" fill="#161b22" style="animation-delay:0.491s"/><rect class="c" x="293" y="124" width="12" height="12" rx="2.4" fill="#161b22" style="animation-delay:0.533s"/><rect class="c" x="293" y="139" width="12" height="12" rx="2.4" fill="#161b22" style="animation-delay:0.575s"/><rect class="c" x="308" y="49" width="12" height="12" rx="2.4" fill="#161b22" style="animation-delay:0.342s"/><rect class="c" x="308" y="64" width="12" height="12" rx="2.4" fill="#161b22" style="animation-delay:0.384s"/><rect class="c" x="308" y="79" width="12" height="12" rx="2.4" fill="#161b22" style="animation-delay:0.426s"/><rect class="c" x="308" y="94" width="12" height="12" rx="2.4" fill="#161b22" style="animation-delay:0.468s"/><rect class="c" x="308" y="109" width="12" height="12" rx="2.4" fill="#161b22" style="animation-delay:0.510s"/><rect class="c" x="308" y="124" width="12" height="12" rx="2.4" fill="#161b22" style="animation-delay:0.552s"/><rect class="c" x="308" y="139" width="12" height="12" rx="2.4" fill="#161b22" style="animation-delay:0.594s"/><rect class="c" x="323" y="49" width="12" height="12" rx="2.4" fill="#161b22" style="animation-delay:0.361s"/><rect class="c" x="323" y="64" width="12" height="12" rx="2.4" fill="#161b22" style="animation-delay:0.403s"/><rect class="c" x="323" y="79" width="12" height="12" rx="2.4" fill="#161b22" style="animation-delay:0.445s"/><rect class="c" x="323" y="94" width="12" height="12" rx="2.4" fill="#161b22" style="animation-delay:0.487s"/><rect class="c" x="323" y="109" width="12" height="12" rx="2.4" fill="#161b22" style="animation-delay:0.529s"/><rect class="c" x="323" y="124" width="12" height="12" rx="2.4" fill="#161b22" style="animation-delay:0.571s"/><rect class="c" x="323" y="139" width="12" height="12" rx="2.4" fill="#161b22" style="animation-delay:0.613s"/><rect class="c" x="338" y="49" width="12" height="12" rx="2.4" fill="#161b22" style="animation-delay:0.380s"/><rect class="c" x="338" y="64" width="12" height="12" rx="2.4" fill="#161b22" style="animation-delay:0.422s"/><rect class="c" x="338" y="79" width="12" height="12" rx="2.4" fill="#161b22" style="animation-delay:0.464s"/><rect class="c" x="338" y="94" width="12" height="12" rx="2.4" fill="#161b22" style="animation-delay:0.506s"/><rect class="c" x="338" y="109" width="12" height="12" rx="2.4" fill="#161b22" style="animation-delay:0.548s"/><rect class="c" x="338" y="124" width="12" height="12" rx="2.4" fill="#161b22" style="animation-delay:0.590s"/><rect class="c" x="338" y="139" width="12" height="12" rx="2.4" fill="#161b22" style="animation-delay:0.632s"/><rect class="c" x="353" y="49" width="12" height="12" rx="2.4" fill="#161b22" style="animation-delay:0.399s"/><rect class="c" x="353" y="64" width="12" height="12" rx="2.4" fill="#161b22" style="animation-delay:0.441s"/><rect class="c" x="353" y="79" width="12" height="12" rx="2.4" fill="#161b22" style="animation-delay:0.483s"/><rect class="c" x="353" y="94" width="12" height="12" rx="2.4" fill="#161b22" style="animation-delay:0.525s"/><rect class="c" x="353" y="109" width="12" height="12" rx="2.4" fill="#161b22" style="animation-delay:0.567s"/><rect class="c" x="353" y="124" width="12" height="12" rx="2.4" fill="#161b22" style="animation-delay:0.609s"/><rect class="c" x="353" y="139" width="12" height="12" rx="2.4" fill="#161b22" style="animation-delay:0.651s"/><rect class="c" x="368" y="49" width="12" height="12" rx="2.4" fill="#161b22" style="animation-delay:0.418s"/><rect class="c" x="368" y="64" width="12" height="12" rx="2.4" fill="#161b22" style="animation-delay:0.460s"/><rect class="c" x="368" y="79" width="12" height="12" rx="2.4" fill="#161b22" style="animation-delay:0.502s"/><rect class="c" x="368" y="94" width="12" height="12" rx="2.4" fill="#161b22" style="animation-delay:0.544s"/><rect class="c" x="368" y="109" width="12" height="12" rx="2.4" fill="#161b22" style="animation-delay:0.586s"/><rect class="c" x="368" y="124" width="12" height="12" rx="2.4" fill="#161b22" style="animation-delay:0.628s"/><rect class="c" x="368" y="139" width="12" height="12" rx="2.4" fill="#161b22" style="animation-delay:0.670s"/><rect class="c" x="383" y="49" width="12" height="12" rx="2.4" fill="#161b22" style="animation-delay:0.437s"/><rect class="c" x="383" y="64" width="12" height="12" rx="2.4" fill="#161b22" style="animation-delay:0.479s"/><rect class="c" x="383" y="79" width="12" height="12" rx="2.4" fill="#161b22" style="animation-delay:0.521s"/><rect class="c" x="383" y="94" width="12" height="12" rx="2.4" fill="#161b22" style="animation-delay:0.563s"/><rect class="c" x="383" y="109" width="12" height="12" rx="2.4" fill="#161b22" style="animation-delay:0.605s"/><rect class="c" x="383" y="124" width="12" height="12" rx="2.4" fill="#161b22" style="animation-delay:0.647s"/><rect class="c" x="383" y="139" width="12" height="12" rx="2.4" fill="#161b22" style="animation-delay:0.689s"/><rect class="c" x="398" y="49" width="12" height="12" rx="2.4" fill="#161b22" style="animation-delay:0.456s"/><rect class="c" x="398" y="64" width="12" height="12" rx="2.4" fill="#161b22" style="animation-delay:0.498s"/><rect class="c" x="398" y="79" width="12" height="12" rx="2.4" fill="#161b22" style="animation-delay:0.540s"/><rect class="c" x="398" y="94" width="12" height="12" rx="2.4" fill="#161b22" style="animation-delay:0.582s"/><rect class="c" x="398" y="109" width="12" height="12" rx="2.4" fill="#161b22" style="animation-delay:0.624s"/><rect class="c" x="398" y="124" width="12" height="12" rx="2.4" fill="#161b22" style="animation-delay:0.666s"/><rect class="c" x="398" y="139" width="12" height="12" rx="2.4" fill="#161b22" style="animation-delay:0.708s"/><rect class="c" x="413" y="49" width="12" height="12" rx="2.4" fill="#161b22" style="animation-delay:0.475s"/><rect class="c" x="413" y="64" width="12" height="12" rx="2.4" fill="#161b22" style="animation-delay:0.517s"/><rect class="c" x="413" y="79" width="12" height="12" rx="2.4" fill="#161b22" style="animation-delay:0.559s"/><rect class="c" x="413" y="94" width="12" height="12" rx="2.4" fill="#161b22" style="animation-delay:0.601s"/><rect class="c" x="413" y="109" width="12" height="12" rx="2.4" fill="#161b22" style="animation-delay:0.643s"/><rect class="c" x="413" y="124" width="12" height="12" rx="2.4" fill="#161b22" style="animation-delay:0.685s"/><rect class="c" x="413" y="139" width="12" height="12" rx="2.4" fill="#161b22" style="animation-delay:0.727s"/><rect class="c" x="428" y="49" width="12" height="12" rx="2.4" fill="#161b22" style="animation-delay:0.494s"/><rect class="c" x="428" y="64" width="12" height="12" rx="2.4" fill="#161b22" style="animation-delay:0.536s"/><rect class="c" x="428" y="79" width="12" height="12" rx="2.4" fill="#161b22" style="animation-delay:0.578s"/><rect class="c" x="428" y="94" width="12" height="12" rx="2.4" fill="#161b22" style="animation-delay:0.620s"/><rect class="c" x="428" y="109" width="12" height="12" rx="2.4" fill="#161b22" style="animation-delay:0.662s"/><rect class="c" x="428" y="124" width="12" height="12" rx="2.4" fill="#161b22" style="animation-delay:0.704s"/><rect class="c" x="428" y="139" width="12" height="12" rx="2.4" fill="#161b22" style="animation-delay:0.746s"/><rect class="c" x="443" y="49" width="12" height="12" rx="2.4" fill="#161b22" style="animation-delay:0.513s"/><rect class="c" x="443" y="64" width="12" height="12" rx="2.4" fill="#161b22" style="animation-delay:0.555s"/><rect class="c" x="443" y="79" width="12" height="12" rx="2.4" fill="#161b22" style="animation-delay:0.597s"/><rect class="c" x="443" y="94" width="12" height="12" rx="2.4" fill="#161b22" style="animation-delay:0.639s"/><rect class="c" x="443" y="109" width="12" height="12" rx="2.4" fill="#161b22" style="animation-delay:0.681s"/><rect class="c" x="443" y="124" width="12" height="12" rx="2.4" fill="#161b22" style="animation-delay:0.723s"/><rect class="c" x="443" y="139" width="12" height="12" rx="2.4" fill="#161b22" style="animation-delay:0.765s"/><rect class="c" x="458" y="49" width="12" height="12" rx="2.4" fill="#161b22" style="animation-delay:0.532s"/><rect class="c" x="458" y="64" width="12" height="12" rx="2.4" fill="#161b22" style="animation-delay:0.574s"/><rect class="c" x="458" y="79" width="12" height="12" rx="2.4" fill="#161b22" style="animation-delay:0.616s"/><rect class="c" x="458" y="94" width="12" height="12" rx="2.4" fill="#161b22" style="animation-delay:0.658s"/><rect class="c" x="458" y="109" width="12" height="12" rx="2.4" fill="#161b22" style="animation-delay:0.700s"/><rect class="c" x="458" y="124" width="12" height="12" rx="2.4" fill="#161b22" style="animation-delay:0.742s"/><rect class="c" x="458" y="139" width="12" height="12" rx="2.4" fill="#161b22" style="animation-delay:0.784s"/><rect class="c" x="473" y="49" width="12" height="12" rx="2.4" fill="#161b22" style="animation-delay:0.551s"/><rect class="c" x="473" y="64" width="12" height="12" rx="2.4" fill="#161b22" style="animation-delay:0.593s"/><rect class="c" x="473" y="79" width="12" height="12" rx="2.4" fill="#161b22" style="animation-delay:0.635s"/><rect class="c" x="473" y="94" width="12" height="12" rx="2.4" fill="#161b22" style="animation-delay:0.677s"/><rect class="c" x="473" y="109" width="12" height="12" rx="2.4" fill="#161b22" style="animation-delay:0.719s"/><rect class="c" x="473" y="124" width="12" height="12" rx="2.4" fill="#161b22" style="animation-delay:0.761s"/><rect class="c" x="473" y="139" width="12" height="12" rx="2.4" fill="#161b22" style="animation-delay:0.803s"/><rect class="c" x="488" y="49" width="12" height="12" rx="2.4" fill="#161b22" style="animation-delay:0.570s"/><rect class="c" x="488" y="64" width="12" height="12" rx="2.4" fill="#161b22" style="animation-delay:0.612s"/><rect class="c" x="488" y="79" width="12" height="12" rx="2.4" fill="#161b22" style="animation-delay:0.654s"/><rect class="c" x="488" y="94" width="12" height="12" rx="2.4" fill="#161b22" style="animation-delay:0.696s"/><rect class="c" x="488" y="109" width="12" height="12" rx="2.4" fill="#161b22" style="animation-delay:0.738s"/><rect class="c" x="488" y="124" width="12" height="12" rx="2.4" fill="#161b22" style="animation-delay:0.780s"/><rect class="c" x="488" y="139" width="12" height="12" rx="2.4" fill="#161b22" style="animation-delay:0.822s"/><rect class="c" x="503" y="49" width="12" height="12" rx="2.4" fill="#161b22" style="animation-delay:0.589s"/><rect class="c" x="503" y="64" width="12" height="12" rx="2.4" fill="#161b22" style="animation-delay:0.631s"/><rect class="c" x="503" y="79" width="12" height="12" rx="2.4" fill="#161b22" style="animation-delay:0.673s"/><rect class="c" x="503" y="94" width="12" height="12" rx="2.4" fill="#161b22" style="animation-delay:0.715s"/><rect class="c" x="503" y="109" width="12" height="12" rx="2.4" fill="#161b22" style="animation-delay:0.757s"/><rect class="c" x="503" y="124" width="12" height="12" rx="2.4" fill="#161b22" style="animation-delay:0.799s"/><rect class="c" x="503" y="139" width="12" height="12" rx="2.4" fill="#161b22" style="animation-delay:0.841s"/><rect class="c" x="518" y="49" width="12" height="12" rx="2.4" fill="#161b22" style="animation-delay:0.608s"/><rect class="c" x="518" y="64" width="12" height="12" rx="2.4" fill="#161b22" style="animation-delay:0.650s"/><rect class="c" x="518" y="79" width="12" height="12" rx="2.4" fill="#161b22" style="animation-delay:0.692s"/><rect class="c" x="518" y="94" width="12" height="12" rx="2.4" fill="#161b22" style="animation-delay:0.734s"/><rect class="c" x="518" y="109" width="12" height="12" rx="2.4" fill="#161b22" style="animation-delay:0.776s"/><rect class="c" x="518" y="124" width="12" height="12" rx="2.4" fill="#161b22" style="animation-delay:0.818s"/><rect class="c" x="518" y="139" width="12" height="12" rx="2.4" fill="#161b22" style="animation-delay:0.860s"/><rect class="c" x="533" y="49" width="12" height="12" rx="2.4" fill="#161b22" style="animation-delay:0.627s"/><rect class="c" x="533" y="64" width="12" height="12" rx="2.4" fill="#161b22" style="animation-delay:0.669s"/><rect class="c" x="533" y="79" width="12" height="12" rx="2.4" fill="#161b22" style="animation-delay:0.711s"/><rect class="c" x="533" y="94" width="12" height="12" rx="2.4" fill="#161b22" style="animation-delay:0.753s"/><rect class="c" x="533" y="109" width="12" height="12" rx="2.4" fill="#161b22" style="animation-delay:0.795s"/><rect class="c" x="533" y="124" width="12" height="12" rx="2.4" fill="#161b22" style="animation-delay:0.837s"/><rect class="c" x="533" y="139" width="12" height="12" rx="2.4" fill="#161b22" style="animation-delay:0.879s"/><rect class="c" x="548" y="49" width="12" height="12" rx="2.4" fill="#161b22" style="animation-delay:0.646s"/><rect class="c" x="548" y="64" width="12" height="12" rx="2.4" fill="#161b22" style="animation-delay:0.688s"/><rect class="c" x="548" y="79" width="12" height="12" rx="2.4" fill="#161b22" style="animation-delay:0.730s"/><rect class="c" x="548" y="94" width="12" height="12" rx="2.4" fill="#161b22" style="animation-delay:0.772s"/><rect class="c" x="548" y="109" width="12" height="12" rx="2.4" fill="#161b22" style="animation-delay:0.814s"/><rect class="c" x="548" y="124" width="12" height="12" rx="2.4" fill="#161b22" style="animation-delay:0.856s"/><rect class="c" x="548" y="139" width="12" height="12" rx="2.4" fill="#161b22" style="animation-delay:0.898s"/><rect class="c" x="563" y="49" width="12" height="12" rx="2.4" fill="#161b22" style="animation-delay:0.665s"/><rect class="c" x="563" y="64" width="12" height="12" rx="2.4" fill="#161b22" style="animation-delay:0.707s"/><rect class="c" x="563" y="79" width="12" height="12" rx="2.4" fill="#161b22" style="animation-delay:0.749s"/><rect class="c" x="563" y="94" width="12" height="12" rx="2.4" fill="#161b22" style="animation-delay:0.791s"/><rect class="c" x="563" y="109" width="12" height="12" rx="2.4" fill="#161b22" style="animation-delay:0.833s"/><rect class="c" x="563" y="124" width="12" height="12" rx="2.4" fill="#161b22" style="animation-delay:0.875s"/><rect class="c" x="563" y="139" width="12" height="12" rx="2.4" fill="#161b22" style="animation-delay:0.917s"/><rect class="c" x="578" y="49" width="12" height="12" rx="2.4" fill="#161b22" style="animation-delay:0.684s"/><rect class="c" x="578" y="64" width="12" height="12" rx="2.4" fill="#161b22" style="animation-delay:0.726s"/><rect class="c" x="578" y="79" width="12" height="12" rx="2.4" fill="#161b22" style="animation-delay:0.768s"/><rect class="c" x="578" y="94" width="12" height="12" rx="2.4" fill="#161b22" style="animation-delay:0.810s"/><rect class="c" x="578" y="109" width="12" height="12" rx="2.4" fill="#161b22" style="animation-delay:0.852s"/><rect class="c" x="578" y="124" width="12" height="12" rx="2.4" fill="#161b22" style="animation-delay:0.894s"/><rect class="c" x="578" y="139" width="12" height="12" rx="2.4" fill="#161b22" style="animation-delay:0.936s"/><rect class="c" x="593" y="49" width="12" height="12" rx="2.4" fill="#161b22" style="animation-delay:0.703s"/><rect class="c" x="593" y="64" width="12" height="12" rx="2.4" fill="#161b22" style="animation-delay:0.745s"/><rect class="c" x="593" y="79" width="12" height="12" rx="2.4" fill="#161b22" style="animation-delay:0.787s"/><rect class="c" x="593" y="94" width="12" height="12" rx="2.4" fill="#161b22" style="animation-delay:0.829s"/><rect class="c" x="593" y="109" width="12" height="12" rx="2.4" fill="#161b22" style="animation-delay:0.871s"/><rect class="c" x="593" y="124" width="12" height="12" rx="2.4" fill="#161b22" style="animation-delay:0.913s"/><rect class="c" x="593" y="139" width="12" height="12" rx="2.4" fill="#161b22" style="animation-delay:0.955s"/><rect class="c" x="608" y="49" width="12" height="12" rx="2.4" fill="#161b22" style="animation-delay:0.722s"/><rect class="c" x="608" y="64" width="12" height="12" rx="2.4" fill="#161b22" style="animation-delay:0.764s"/><rect class="c" x="608" y="79" width="12" height="12" rx="2.4" fill="#161b22" style="animation-delay:0.806s"/><rect class="c" x="608" y="94" width="12" height="12" rx="2.4" fill="#161b22" style="animation-delay:0.848s"/><rect class="c" x="608" y="109" width="12" height="12" rx="2.4" fill="#161b22" style="animation-delay:0.890s"/><rect class="c" x="608" y="124" width="12" height="12" rx="2.4" fill="#161b22" style="animation-delay:0.932s"/><rect class="c" x="608" y="139" width="12" height="12" rx="2.4" fill="#161b22" style="animation-delay:0.974s"/><rect class="c" x="623" y="49" width="12" height="12" rx="2.4" fill="#161b22" style="animation-delay:0.741s"/><rect class="c" x="623" y="64" width="12" height="12" rx="2.4" fill="#161b22" style="animation-delay:0.783s"/><rect class="c" x="623" y="79" width="12" height="12" rx="2.4" fill="#161b22" style="animation-delay:0.825s"/><rect class="c" x="623" y="94" width="12" height="12" rx="2.4" fill="#161b22" style="animation-delay:0.867s"/><rect class="c" x="623" y="109" width="12" height="12" rx="2.4" fill="#161b22" style="animation-delay:0.909s"/><rect class="c" x="623" y="124" width="12" height="12" rx="2.4" fill="#161b22" style="animation-delay:0.951s"/><rect class="c" x="623" y="139" width="12" height="12" rx="2.4" fill="#161b22" style="animation-delay:0.993s"/><rect class="c" x="638" y="49" width="12" height="12" rx="2.4" fill="#161b22" style="animation-delay:0.760s"/><rect class="c" x="638" y="64" width="12" height="12" rx="2.4" fill="#161b22" style="animation-delay:0.802s"/><rect class="c" x="638" y="79" width="12" height="12" rx="2.4" fill="#161b22" style="animation-delay:0.844s"/><rect class="c" x="638" y="94" width="12" height="12" rx="2.4" fill="#161b22" style="animation-delay:0.886s"/><rect class="c" x="638" y="109" width="12" height="12" rx="2.4" fill="#161b22" style="animation-delay:0.928s"/><rect class="c" x="638" y="124" width="12" height="12" rx="2.4" fill="#161b22" style="animation-delay:0.970s"/><rect class="c" x="638" y="139" width="12" height="12" rx="2.4" fill="#161b22" style="animation-delay:1.012s"/><rect class="c" x="653" y="49" width="12" height="12" rx="2.4" fill="#161b22" style="animation-delay:0.779s"/><rect class="c" x="653" y="64" width="12" height="12" rx="2.4" fill="#161b22" style="animation-delay:0.821s"/><rect class="c" x="653" y="79" width="12" height="12" rx="2.4" fill="#161b22" style="animation-delay:0.863s"/><rect class="c" x="653" y="94" width="12" height="12" rx="2.4" fill="#161b22" style="animation-delay:0.905s"/><rect class="c" x="653" y="109" width="12" height="12" rx="2.4" fill="#161b22" style="animation-delay:0.947s"/><rect class="c" x="653" y="124" width="12" height="12" rx="2.4" fill="#161b22" style="animation-delay:0.989s"/><rect class="c" x="653" y="139" width="12" height="12" rx="2.4" fill="#161b22" style="animation-delay:1.031s"/><rect class="c" x="668" y="49" width="12" height="12" rx="2.4" fill="#161b22" style="animation-delay:0.798s"/><rect class="c" x="668" y="64" width="12" height="12" rx="2.4" fill="#161b22" style="animation-delay:0.840s"/><rect class="c" x="668" y="79" width="12" height="12" rx="2.4" fill="#161b22" style="animation-delay:0.882s"/><rect class="c" x="668" y="94" width="12" height="12" rx="2.4" fill="#161b22" style="animation-delay:0.924s"/><rect class="c" x="668" y="109" width="12" height="12" rx="2.4" fill="#161b22" style="animation-delay:0.966s"/><rect class="c" x="668" y="124" width="12" height="12" rx="2.4" fill="#161b22" style="animation-delay:1.008s"/><rect class="c" x="668" y="139" width="12" height="12" rx="2.4" fill="#161b22" style="animation-delay:1.050s"/><rect class="c" x="683" y="49" width="12" height="12" rx="2.4" fill="#161b22" style="animation-delay:0.817s"/><rect class="c" x="683" y="64" width="12" height="12" rx="2.4" fill="#161b22" style="animation-delay:0.859s"/><rect class="c" x="683" y="79" width="12" height="12" rx="2.4" fill="#161b22" style="animation-delay:0.901s"/><rect class="c" x="683" y="94" width="12" height="12" rx="2.4" fill="#161b22" style="animation-delay:0.943s"/><rect class="c" x="683" y="109" width="12" height="12" rx="2.4" fill="#161b22" style="animation-delay:0.985s"/><rect class="c" x="683" y="124" width="12" height="12" rx="2.4" fill="#161b22" style="animation-delay:1.027s"/><rect class="c" x="683" y="139" width="12" height="12" rx="2.4" fill="#161b22" style="animation-delay:1.069s"/><rect class="c" x="698" y="49" width="12" height="12" rx="2.4" fill="#161b22" style="animation-delay:0.836s"/><rect class="c" x="698" y="64" width="12" height="12" rx="2.4" fill="#161b22" style="animation-delay:0.878s"/><rect class="c" x="698" y="79" width="12" height="12" rx="2.4" fill="#161b22" style="animation-delay:0.920s"/><rect class="c" x="698" y="94" width="12" height="12" rx="2.4" fill="#161b22" style="animation-delay:0.962s"/><rect class="c" x="698" y="109" width="12" height="12" rx="2.4" fill="#161b22" style="animation-delay:1.004s"/><rect class="c" x="698" y="124" width="12" height="12" rx="2.4" fill="#161b22" style="animation-delay:1.046s"/><rect class="c" x="698" y="139" width="12" height="12" rx="2.4" fill="#161b22" style="animation-delay:1.088s"/><rect class="c" x="713" y="49" width="12" height="12" rx="2.4" fill="#161b22" style="animation-delay:0.855s"/><rect class="c" x="713" y="64" width="12" height="12" rx="2.4" fill="#161b22" style="animation-delay:0.897s"/><rect class="c" x="713" y="79" width="12" height="12" rx="2.4" fill="#161b22" style="animation-delay:0.939s"/><rect class="c" x="713" y="94" width="12" height="12" rx="2.4" fill="#161b22" style="animation-delay:0.981s"/><rect class="c" x="713" y="109" width="12" height="12" rx="2.4" fill="#161b22" style="animation-delay:1.023s"/><rect class="c" x="713" y="124" width="12" height="12" rx="2.4" fill="#161b22" style="animation-delay:1.065s"/><rect class="c" x="713" y="139" width="12" height="12" rx="2.4" fill="#161b22" style="animation-delay:1.107s"/><rect class="c" x="728" y="49" width="12" height="12" rx="2.4" fill="#161b22" style="animation-delay:0.874s"/><rect class="c" x="728" y="64" width="12" height="12" rx="2.4" fill="#161b22" style="animation-delay:0.916s"/><rect class="c" x="728" y="79" width="12" height="12" rx="2.4" fill="#161b22" style="animation-delay:0.958s"/><rect class="c" x="728" y="94" width="12" height="12" rx="2.4" fill="#161b22" style="animation-delay:1.000s"/><rect class="c" x="728" y="109" width="12" height="12" rx="2.4" fill="#161b22" style="animation-delay:1.042s"/><rect class="c" x="728" y="124" width="12" height="12" rx="2.4" fill="#161b22" style="animation-delay:1.084s"/><rect class="c" x="728" y="139" width="12" height="12" rx="2.4" fill="#161b22" style="animation-delay:1.126s"/><rect class="c" x="743" y="49" width="12" height="12" rx="2.4" fill="#161b22" style="animation-delay:0.893s"/><rect class="c" x="743" y="64" width="12" height="12" rx="2.4" fill="#161b22" style="animation-delay:0.935s"/><rect class="c" x="743" y="79" width="12" height="12" rx="2.4" fill="#161b22" style="animation-delay:0.977s"/><rect class="c" x="743" y="94" width="12" height="12" rx="2.4" fill="#161b22" style="animation-delay:1.019s"/><rect class="c" x="743" y="109" width="12" height="12" rx="2.4" fill="#161b22" style="animation-delay:1.061s"/><rect class="c" x="743" y="124" width="12" height="12" rx="2.4" fill="#161b22" style="animation-delay:1.103s"/><rect class="c" x="743" y="139" width="12" height="12" rx="2.4" fill="#161b22" style="animation-delay:1.145s"/><rect class="c" x="758" y="49" width="12" height="12" rx="2.4" fill="#161b22" style="animation-delay:0.912s"/><rect class="c" x="758" y="64" width="12" height="12" rx="2.4" fill="#161b22" style="animation-delay:0.954s"/><rect class="c" x="758" y="79" width="12" height="12" rx="2.4" fill="#161b22" style="animation-delay:0.996s"/><rect class="c" x="758" y="94" width="12" height="12" rx="2.4" fill="#161b22" style="animation-delay:1.038s"/><rect class="c" x="758" y="109" width="12" height="12" rx="2.4" fill="#161b22" style="animation-delay:1.080s"/><rect class="c" x="758" y="124" width="12" height="12" rx="2.4" fill="#161b22" style="animation-delay:1.122s"/><rect class="c" x="758" y="139" width="12" height="12" rx="2.4" fill="#161b22" style="animation-delay:1.164s"/><rect class="c" x="773" y="49" width="12" height="12" rx="2.4" fill="#161b22" style="animation-delay:0.931s"/><rect class="c" x="773" y="64" width="12" height="12" rx="2.4" fill="#161b22" style="animation-delay:0.973s"/><rect class="c" x="773" y="79" width="12" height="12" rx="2.4" fill="#161b22" style="animation-delay:1.015s"/><rect class="c" x="773" y="94" width="12" height="12" rx="2.4" fill="#161b22" style="animation-delay:1.057s"/><rect class="c" x="773" y="109" width="12" height="12" rx="2.4" fill="#161b22" style="animation-delay:1.099s"/><rect class="c" x="773" y="124" width="12" height="12" rx="2.4" fill="#161b22" style="animation-delay:1.141s"/><rect class="c" x="773" y="139" width="12" height="12" rx="2.4" fill="#161b22" style="animation-delay:1.183s"/><rect class="c" x="788" y="49" width="12" height="12" rx="2.4" fill="#161b22" style="animation-delay:0.950s"/><rect class="c" x="788" y="64" width="12" height="12" rx="2.4" fill="#161b22" style="animation-delay:0.992s"/><rect class="c" x="788" y="79" width="12" height="12" rx="2.4" fill="#161b22" style="animation-delay:1.034s"/><rect class="c" x="788" y="94" width="12" height="12" rx="2.4" fill="#161b22" style="animation-delay:1.076s"/><rect class="c" x="788" y="109" width="12" height="12" rx="2.4" fill="#161b22" style="animation-delay:1.118s"/><rect class="c" x="788" y="124" width="12" height="12" rx="2.4" fill="#161b22" style="animation-delay:1.160s"/><rect class="c" x="788" y="139" width="12" height="12" rx="2.4" fill="#161b22" style="animation-delay:1.202s"/><rect class="c" x="803" y="49" width="12" height="12" rx="2.4" fill="#161b22" style="animation-delay:0.969s"/><rect class="c" x="803" y="64" width="12" height="12" rx="2.4" fill="#161b22" style="animation-delay:1.011s"/><rect class="c" x="803" y="79" width="12" height="12" rx="2.4" fill="#161b22" style="animation-delay:1.053s"/><rect class="c" x="803" y="94" width="12" height="12" rx="2.4" fill="#161b22" style="animation-delay:1.095s"/><rect class="c" x="803" y="109" width="12" height="12" rx="2.4" fill="#161b22" style="animation-delay:1.137s"/><rect class="c" x="803" y="124" width="12" height="12" rx="2.4" fill="#161b22" style="animation-delay:1.179s"/><rect class="c" x="803" y="139" width="12" height="12" rx="2.4" fill="#161b22" style="animation-delay:1.221s"/><rect class="c" x="818" y="49" width="12" height="12" rx="2.4" fill="#161b22" style="animation-delay:0.988s"/><rect class="c" x="818" y="64" width="12" height="12" rx="2.4" fill="#161b22" style="animation-delay:1.030s"/><rect class="c" x="818" y="79" width="12" height="12" rx="2.4" fill="#161b22" style="animation-delay:1.072s"/><rect class="c" x="818" y="94" width="12" height="12" rx="2.4" fill="#161b22" style="animation-delay:1.114s"/><rect class="c" x="818" y="109" width="12" height="12" rx="2.4" fill="#161b22" style="animation-delay:1.156s"/><rect class="c" x="818" y="124" width="12" height="12" rx="2.4" fill="#161b22" style="animation-delay:1.198s"/><rect class="c" x="818" y="139" width="12" height="12" rx="2.4" fill="#161b22" style="animation-delay:1.240s"/><line x1="0" y1="164" x2="860" y2="164" stroke="#30363d"/><text x="20" y="188" fill="#7d8590" font-size="12"><tspan fill="url(#accent)" font-weight="700">Live data pending</tspan><tspan> · the first workflow run will populate this graph</tspan></text></svg>